
<svg xmlns="http://www.w3.org/2000/svg" viewBox="0 0 134 134"><defs><style>.cls-1{fill:url(#linear-gradient);}</style><linearGradient id="linear-gradient" x1="20.33" x2="113.56" y1="113.67" y2="20.44" gradientUnits="userSpaceOnUse"><stop offset="0" stop-color="#00cd64"/><stop offset="1" stop-color="#00ff80"/></linearGradient></defs><title>G-Loot_Logo_Symbol_Green_Gradient</title><path d="M120.08 27.77l-9.47 9.47a52.7 52.7 0 1 1-21.06-18L79.3 29.47a39.55 39.55 0 1 0 27.3 37.68 38.3 38.3 0 0 0-.56-6.5H74.4l-13.2 13.2h31.37a26.42 26.42 0 0 1-52-6.78A26.2 26.2 0 0 1 67 40.9a25.52 25.52 0 0 1 14.93 4.66L110.3 17.2A65.76 65.76 0 0 0 67 1a66 66 0 1 0 66 66 65.7 65.7 0 0 0-12.92-39.23z" class="cls-1"/></svg>